<svg height="512pt" viewBox="-79 0 512 512" width="512pt" xmlns="http://www.w3.org/2000/svg"><path d="m223.371094 178.601562c-1.703125 7.417969-2.6875 17.34375-6.085938 23.945313 9.757813 10.441406 16.972656 22.355469 21.664063 34.972656 2.546875 6.847657 12.054687 7.15625 15.28125.605469 8.078125-16.398438 10.945312-34.761719 8.53125-52.578125-12.246094-3.242187-26.609375-7.5-39.390625-6.945313zm0 0" fill="#738c96"/><path d="m354.410156 218.480469c-4.246094-15.125-10.632812-28.226563-18.824218-38.960938-1.074219-1.40625-1.398438-3.246093-.878907-4.933593 10.421875-33.832032-1.9375-72.351563-33.925781-92.679688-29.460938-18.722656-63.449219-29.21875-98.1875-30.472656-5.03125-.179688-9.628906-2.988282-12.003906-7.425782-15.433594-28.84375-46.757813-46.289062-79.769532-43.765624-5.925781.453124-8.664062 7.582031-4.542968 11.863281 3.035156 4.402343 24.886718 18.921875 21.304687 47.917969-.28125 2.273437-1.773437 4.199218-3.902343 5.046874-111.238282 44.242188-157.101563 176.019532-97.300782 279.597657 24.621094 43.125 63.136719 73.285156 106.667969 88.117187 12.074219 4.113282 21.542969 13.828125 24.609375 26.210938 9.003906 36.355468 44.824219 58.96875 81.128906 51.621094 3.929688-.796876 5.464844-5.527344 2.789063-8.511719-10.296875-11.492188-16.695313-26.304688-17.652344-42.164063-.636719-10.527344-8.359375-19.273437-18.714844-21.28125 10.355469 2.007813 20.789063-3.214844 25.308594-12.746094 6.8125-14.351562 18.28125-25.699218 32.128906-32.515624 3.585938-1.765626 3.945313-6.726563.605469-8.929688-30.6875-20.230469-72.523438-13.070312-94.527344 17.398438-4.472656 6.191406-13.308594 7.109374-19.136718 2.171874-.535157-.453124-1.066407-.910156-1.589844-1.367187-37.988282-23.824219-63.246094-66.078125-63.246094-114.226563 0-53.769531 26.304688-85.503906 71.859375-107.113281 2.445313 8.867188 8.953125 3.523438 8.953125 13.171875 0 1.621094-.046875 3.445313-.121094 5.058594 3.78125-2.304688 7.738282-4.46875 11.871094-6.476562l.03125.0625c15.394531-7.207032 31.625-11.023438 47.78125-11.707032-.042969.003906-.085938.003906-.125.003906 7.28125-14.796874 97.910156 6.074219 118.457031 54.222657 7.242188-1.394531 13.390625-8.503907 10.953125-17.1875zm0 0" fill="#9bb9c3"/><path d="m354.410156 218.480469c-4.242187-15.125-10.632812-28.226563-18.824218-38.957031-1.074219-1.40625-1.398438-3.25-.878907-4.9375 10.417969-33.832032-1.941406-72.351563-33.925781-92.679688-5.625-3.574219-11.414062-6.84375-17.34375-9.8125 21.734375 21.480469 29.15625 53.351562 20.367188 81.890625-.519532 1.6875-.195313 3.527344.875 4.933594 8.191406 10.734375 14.582031 23.835937 18.828124 38.960937.503907 1.800782.617188 3.652344.371094 5.445313 3.941406 4.824219 4.359375 11.277343 7.609375 16.621093 3.3125 5.449219 9.441407 9.800782 11.96875 15.71875.664063-.121093 1.324219-.289062 1.976563-.515624 7.308594-2.511719 10.863281-9.945313 8.976562-16.667969zm0 0" fill="#87a0af"/><path d="m193.015625 439.339844c.957031 15.859375 7.355469 30.667968 17.65625 42.164062 2.671875 2.984375 1.136719 7.714844-2.789063 8.507813-9.636718 1.953125-19.863281 1.882812-30.128906-.601563-1.730468-.417968-3.429687-.90625-5.097656-1.449218 9.148438 10.609374 21.527344 18.546874 36 22.054687 10.265625 2.484375 20.496094 2.550781 30.128906.601563 3.929688-.796876 5.464844-5.527344 2.789063-8.511719-10.296875-11.492188-16.695313-26.304688-17.652344-42.164063-.636719-10.527344-8.359375-19.273437-18.714844-21.28125l-6.933593-1.34375 6.933593 1.34375c10.355469 2.007813 20.789063-3.214844 25.308594-12.746094 6.8125-14.351562 18.277344-25.699218 32.125-32.515624 3.589844-1.765626 3.949219-6.726563.609375-8.929688-10-6.589844-21.183594-10.253906-32.476562-11.171875-23.015626 11.773437-39.222657 36.140625-37.824219 66.042969zm0 0" fill="#87a0af"/><path d="m164.96875 157.808594c-2.90625 1.5625-4.269531 4.9375-3.371094 8.109375 2.578125 9.085937 3.964844 18.671875 3.964844 28.585937 0 14.511719-2.945312 28.332032-8.277344 40.902344-2.851562 6.722656 3.84375 13.480469 10.691406 10.933594 33.492188-12.449219 57.679688-44.03125 59.253907-81.472656.113281-2.632813-1.316407-5.097657-3.628907-6.359376l-.925781-.503906c-17.96875-9.8125-39.675781-9.882812-57.707031-.195312zm0 0" fill="#9bb9c3"/><path d="m223.601562 158.507812-.925781-.503906c-8.554687-4.671875-17.960937-7.109375-27.410156-7.359375.726563 1.152344 1.117187 2.507813 1.058594 3.921875-1.148438 27.324219-14.347657 51.519532-34.414063 67.445313-1.246094 4.597656-2.792968 9.070312-4.625 13.394531-2.851562 6.722656 3.84375 13.480469 10.691406 10.9375 33.492188-12.449219 57.679688-44.035156 59.253907-81.476562.109375-2.632813-1.316407-5.097657-3.628907-6.359376zm0 0" fill="#87a0af"/><path d="m219.480469 153.714844c-2.085938 0-4.160157.046875-6.222657.140625 3.222657 1.101562 6.375 2.484375 9.417969 4.148437l.925781.503906c2.3125 1.261719 3.738282 3.726563 3.628907 6.359376-.238281 5.675781-1 11.21875-2.230469 16.582031.042969-.003907.082031-.003907.125-.007813 40.105469-1.691406 79.773438 15.921875 105.164062 48.960938l.125.160156c3.546876 4.617188 8.511719 5.980469 13.046876 5.105469-20.550782-48.144531-68.324219-81.953125-123.980469-81.953125zm0 0" fill="#fff5f5"/><g fill="#ebe1dc"><path d="m227.1875 163.808594c.039062.347656.058594.695312.042969 1.050781-.238281 5.679687-1 11.226563-2.230469 16.589844 20.480469-.886719 40.84375 3.273437 59.257812 11.941406-16.304687-14.796875-36.058593-24.859375-57.070312-29.582031zm0 0"/><path d="m121.144531 369.441406c-32.824219-57.175781-15.996093-131.28125 41.273438-168.050781 1.003906-.644531 2.015625-1.273437 3.027343-1.886719.078126-1.65625.117188-3.324218.117188-5 0-9.648437-1.316406-18.984375-3.761719-27.855468-45.550781 21.613281-77.050781 68.027343-77.050781 121.796874 0 48.152344 25.261719 90.40625 63.253906 114.230469-10.5-9.203125-19.644531-20.324219-26.859375-33.234375zm0 0"/></g></svg>