<svg height="511pt" viewBox="-76 0 511 511.99898" width="511pt" xmlns="http://www.w3.org/2000/svg"><path d="m352.011719 219.582031c-4.121094-14.683593-10.324219-27.398437-18.273438-37.816406-1.042969-1.367187-1.355469-3.152344-.851562-4.792969 10.113281-32.839844-1.882813-70.230468-32.929688-89.964844-28.597656-18.175781-61.59375-28.363281-95.316406-29.578124-4.882813-.175782-9.34375-2.902344-11.648437-7.210938-14.980469-28-45.390626-44.929688-77.433594-42.484375-5.753906.441406-8.410156 7.363281-4.410156 11.519531l7.925781 8.234375c9.800781 10.1875 14.488281 24.25 12.753906 38.28125-.273437 2.203125-1.722656 4.074219-3.789063 4.898438-8.484374 3.371093-16.828124 7.402343-24.96875 12.101562-91.058593 52.574219-122.054687 168.246094-69.480468 259.304688 23.902344 41.859375 61.289062 71.136719 103.542968 85.535156 11.71875 3.996094 20.914063 13.425781 23.890626 25.445313 5.875 23.726562 24.464843 43.460937 49.507812 49.523437 9.964844 2.414063 19.890625 2.476563 29.246094.585937 3.8125-.773437 5.300781-5.367187 2.707031-8.261718-10-11.160156-16.210937-25.535156-17.136719-40.929688-.617187-10.222656-8.113281-18.710937-18.167968-20.65625l-6.730469-1.304687 6.730469 1.304687c10.054687 1.945313 20.179687-3.125 24.570312-12.375 6.609375-13.933594 17.742188-24.949218 31.183594-31.5625 3.484375-1.714844 3.832031-6.53125.589844-8.667968-29.789063-19.636719-70.398438-12.691407-91.761719 16.890624-4.339844 6.007813-12.917969 6.902344-18.574219 2.109376-10.835938-9.183594-20.253906-20.429688-27.605469-33.589844-31.867187-55.5-15.53125-127.433594 40.0625-163.125.976563-.628906 1.957031-1.238282 2.941407-1.832032.074218-1.609374.113281-3.226562.113281-4.855468 0-9.621094-1.347657-18.929688-3.851563-27.75-.867187-3.058594.429688-6.339844 3.226563-7.847656 17.515625-9.429688 38.605469-9.367188 56.0625.164062l.898437.488281c2.242188 1.226563 3.628906 3.613281 3.523438 6.167969-.230469 5.515625-.96875 10.898438-2.164063 16.101562 38.972657-1.683593 77.53125 15.417969 102.203125 47.523438l.1875.238281c3.398438 4.421875 9.238282 6.179688 14.515625 4.367188 7.089844-2.4375 10.542969-9.652344 8.710938-16.179688zm0 0" fill="#9bb9c3"/><path d="m352.011719 219.582031c-4.121094-14.683593-10.324219-27.398437-18.273438-37.816406-1.042969-1.367187-1.355469-3.152344-.851562-4.792969 10.113281-32.839844-1.882813-70.230468-32.929688-89.964844-5.460937-3.46875-11.082031-6.644531-16.839843-9.523437 21.097656 20.847656 28.300781 51.789063 19.769531 79.488281-.503907 1.640625-.1875 3.425782.851562 4.792969 7.953125 10.417969 14.15625 23.132813 18.273438 37.816406 1.757812 6.261719-1.359375 13.144531-7.882813 15.847657 5.210938 4.753906 10.066406 9.996093 14.46875 15.726562l.183594.238281c3.398438 4.421875 9.242188 6.179688 14.515625 4.367188 7.09375-2.4375 10.546875-9.652344 8.714844-16.179688zm0 0" fill="#87a0af"/><path d="m195.347656 433.972656c.925782 15.394532 7.136719 29.769532 17.136719 40.929688 2.59375 2.894531 1.105469 7.488281-2.707031 8.261718-9.355469 1.890626-19.28125 1.828126-29.246094-.585937-1.679688-.40625-3.328125-.878906-4.949219-1.40625 8.882813 10.296875 20.898438 18.003906 34.949219 21.40625 9.964844 2.414063 19.890625 2.476563 29.246094.585937 3.8125-.773437 5.300781-5.367187 2.707031-8.261718-10-11.160156-16.210937-25.535156-17.136719-40.929688-.617187-10.222656-8.117187-18.710937-18.167968-20.65625l-6.730469-1.304687 6.730469 1.304687c10.050781 1.945313 20.179687-3.125 24.566406-12.375 6.613281-13.933594 17.746094-24.949218 31.1875-31.5625 3.484375-1.714844 3.832031-6.53125.589844-8.667968-9.707032-6.398438-20.5625-9.957032-31.527344-10.847657-22.34375 11.429688-38.070313 35.082031-36.714844 64.113281zm0 0" fill="#87a0af"/><path d="m168.121094 160.6875c-2.820313 1.515625-4.148438 4.792969-3.273438 7.871094 2.5 8.824218 3.847656 18.128906 3.847656 27.75 0 14.085937-2.863281 27.503906-8.035156 39.703125-2.769531 6.527343 3.730469 13.089843 10.375 10.617187 32.515625-12.085937 55.992188-42.742187 57.519532-79.089844.109374-2.554687-1.277344-4.945312-3.523438-6.171874l-.898438-.492188c-17.4375-9.523438-38.507812-9.59375-56.011718-.1875zm0 0" fill="#9bb9c3"/><path d="m225.03125 161.363281-.894531-.488281c-8.304688-4.535156-17.433594-6.898438-26.609375-7.144531.703125 1.121093 1.085937 2.4375 1.03125 3.808593-1.117188 26.523438-13.929688 50.011719-33.410156 65.46875-1.210938 4.460938-2.707032 8.804688-4.488282 13.003907-2.769531 6.523437 3.730469 13.085937 10.378906 10.613281 32.511719-12.085938 55.992188-42.742188 57.519532-79.089844.105468-2.554687-1.28125-4.945312-3.527344-6.171875zm0 0" fill="#87a0af"/><path d="m341.382812 236.207031c-4.648437.785157-9.597656-.894531-12.707031-4.949219-24.667969-32.167968-63.269531-49.3125-102.28125-47.625 1.195313-5.203124 1.929688-10.582031 2.164063-16.09375.105468-2.558593-1.277344-4.949218-3.523438-6.175781l-.898437-.488281c-2.953125-1.613281-6.015625-2.953125-9.144531-4.027344 2.003906-.089844 4.019531-.136718 6.042968-.136718 54.027344 0 100.402344 32.757812 120.347656 79.496093zm0 0" fill="#fff5f5"/><path d="m228.515625 166.511719c.039063.335937.054687.675781.042969 1.019531-.234375 5.515625-.972656 10.898438-2.167969 16.101562 19.878906-.859374 39.648437 3.179688 57.523437 11.59375-15.828124-14.359374-35.003906-24.132812-55.398437-28.714843zm0 0" fill="#ebe1dc"/><path d="m125.582031 366.121094c-31.867187-55.5-15.53125-127.433594 40.0625-163.128906.972657-.625 1.953125-1.234376 2.9375-1.828126.078125-1.609374.117188-3.230468.117188-4.855468 0-9.363282-1.28125-18.429688-3.652344-27.039063-44.21875 20.976563-74.796875 66.035157-74.796875 118.230469 0 46.742188 24.519531 87.757812 61.402344 110.882812-10.191406-8.933593-19.070313-19.730468-26.070313-32.261718zm0 0" fill="#ebe1dc"/><path d="m226.390625 183.632812c-1.652344 7.207032-4.191406 14.074219-7.488281 20.484376 9.472656 10.132812 16.476562 21.699218 21.03125 33.945312 2.46875 6.644531 11.699218 6.949219 14.832031.585938 7.84375-15.917969 10.625-33.742188 8.28125-51.035157-11.886719-3.148437-24.25-4.515625-36.65625-3.980469zm0 0" fill="#738c96"/><path d="m359.234375 217.558594c-4.230469-15.070313-10.570313-28.335938-18.855469-39.449219 10.851563-36.914063-4.011718-76.84375-36.398437-97.429687-29.652344-18.847657-63.910157-29.476563-99.070313-30.746094-2.242187-.082032-4.273437-1.328125-5.304687-3.25-16.515625-30.867188-49.726563-49.09375-84.617188-46.425782-12.070312.921876-17.644531 15.464844-9.246093 24.195313l7.925781 8.238281c8.078125 8.390625 11.992187 19.765625 10.8125 31.320313-61.664063 24.835937-106.421875 78.695312-119.808594 142.742187-.847656 4.054688 1.75 8.027344 5.804687 8.875 4.058594.851563 8.03125-1.75 8.878907-5.804687 12.542969-60.015625 54.644531-109.589844 111.457031-132.191407 4.609375-1.832031 7.851562-6.027343 8.457031-10.945312 2.019531-16.347656-3.371093-32.53125-14.792969-44.398438l-6.902343-7.171874c28.421875-1.601563 55.320312 13.441406 68.804687 38.640624 3.539063 6.617188 10.433594 10.894532 17.988282 11.167969 32.496093 1.171875 64.160156 10.996094 91.5625 28.414063 27.015624 17.167968 39.265624 50.652344 29.789062 81.425781-1.214844 3.949219-.449219 8.269531 2.054688 11.550781 7.464843 9.777344 13.1875 21.652344 17.015624 35.292969.324219 1.148437.261719 2.460937-.226562 3.667969-9.398438-18.613282-22.972656-34.988282-39.632812-47.71875-3.292969-2.515625-8-1.886719-10.515626 1.40625-2.511718 3.289062-1.882812 7.996094 1.40625 10.511718 5.195313 3.972657 10.054688 8.339844 14.535157 13.046876-21.425781-16.292969-47.648438-25.675782-75-26.449219.34375-2.714844.578125-5.457031.691406-8.222657.039063-.929687-.015625-1.855468-.160156-2.757812 10.753906 1.285156 21.238281 3.976562 31.308593 8.050781 3.839844 1.550781 8.214844-.304687 9.765626-4.144531 1.550781-3.839844-.304688-8.214844-4.144532-9.765625-18.183594-7.347656-37.363281-10.617187-56.734375-9.9375-16.949219-5.421875-35.476562-3.835937-51.515625 4.78125-4.171875 2.242187-6.820312 6.265625-7.386718 10.726563-45.3125 23.613281-74.433594 70.566406-74.433594 122.691406 0 47.722656 24.066406 91.382812 64.40625 116.917968.390625.339844.785156.679688 1.183594 1.015626 9.03125 7.648437 22.644531 6.058593 29.5-3.441407 18.019531-24.949219 51.492187-32.089843 77.867187-17.265625-13.351563 7.582032-24.171875 19.164063-30.734375 33-2.917969 6.148438-9.644531 9.53125-16.367188 8.226563l-6.730468-1.304688c-4.625-.898437-8.921875 2.644531-8.929688 7.367188 0 3.523437 2.488282 6.664062 6.074219 7.359375l6.730469 1.304687c6.722656 1.304688 11.699218 6.957031 12.109375 13.746094.917969 15.285156 6.625 30.066406 16.175781 42.09375-29.484375 3.796875-58.191406-14.816406-65.734375-45.265625-3.546875-14.324219-14.296875-25.8125-28.75-30.738281-77.449219-26.394531-125.644531-100.390625-124.007813-177.296875.089844-4.140625-3.195312-7.570313-7.339843-7.65625-4.199219-.074219-7.570313 3.242187-7.65625 7.339844-1.773438 83.335937 50.425781 163.273437 134.167969 191.808593 9.605468 3.273438 16.71875 10.804688 19.03125 20.148438 9.929687 40.09375 49.105468 63.433593 87.523437 55.65625 9.515625-1.925781 13.25-13.421875 6.800781-20.617188-9.015625-10.066406-14.425781-22.984375-15.234375-36.375-.371093-6.136719-2.59375-11.808593-6.152343-16.425781 5.027343-2.953125 9.207031-7.386719 11.84375-12.9375 5.753906-12.121094 15.597656-22.082031 27.722656-28.050781 8.59375-4.226563 9.5625-16.277344 1.40625-21.65625-33.589844-22.140625-78.382813-13.902344-101.96875 18.761719-1.742188 2.410156-5.269532 2.792968-7.644532.777343-10.464843-8.867187-19.179687-19.480469-25.953124-31.601562-28.09375-48.929688-15.992188-110.226563 26.808593-145.238281-1.230469 5.4375-2.941406 10.757812-5.140625 15.933593-4.460937 10.523438 3.523438 21.566407 14.414063 21.566407 1.835937 0 3.695312-.324219 5.484375-.988282 3.957031-1.472656 7.855468-3.226562 11.585937-5.210937 3.65625-1.945313 5.042969-6.488281 3.097657-10.144531-1.945313-3.65625-6.488282-5.042969-10.144532-3.097657-3.144531 1.675781-6.429687 3.152344-9.765625 4.390625-.144531.054688-.445312.167969-.765625-.167968-.210937-.21875-.167968-.320313-.09375-.488282 9.34375-22.035156 11.445313-47.40625 4.636719-71.929687 15.058594-7.867188 33.085937-7.878907 48.339844.449219l.5.269531c-.566407 11.730469-3.59375 22.722656-8.558594 32.511719-.371094.613281-3.347656 7.058593-9.582031 14.679687-2.625 3.207031-2.148438 7.929687 1.058594 10.554687 3.203124 2.621094 7.929687 2.148438 10.550781-1.058593 1.949219-2.382813 3.777343-4.84375 5.472656-7.367188 5.429687 7.21875 9.761719 15.132813 12.921875 23.628907 2.335938 6.285156 8.085938 10.0625 14.503906 10.0625 5.960938 0 11.429688-3.378907 14.085938-8.777344 6.761718-13.722656 10.101562-28.707032 9.855468-43.890625 19.75 7.253906 37.746094 19.988281 51.484376 37.894531 5.359374 6.972656 14.554687 9.757812 22.898437 6.890625 10.535156-3.625 16.460937-14.738281 13.5-25.300781zm-256.015625 106.46875c-17.304688-56.1875 7.609375-115.460938 56.636719-143.585938.921875 5.414063 1.375 10.917969 1.339843 16.5-43.71875 28.285156-64.96875 78.523438-57.976562 127.085938zm144.820312-88.691406c-.066406.136718-.191406.429687-.671874.402343-.304688-.015625-.339844-.117187-.40625-.289062-4.4375-11.929688-10.855469-22.863281-19.117188-32.570313 1.726562-3.851562 3.1875-7.808594 4.382812-11.855468 8.109376.035156 16.121094.929687 23.914063 2.625 1.058594 14.394531-1.707031 28.710937-8.101563 41.6875zm0 0"/></svg>